<svg width="70" height="71" viewBox="0 0 70 71" fill="none" xmlns="http://www.w3.org/2000/svg">
<path d="M48.1355 0.631592C61.565 0.631592 70 8.95286 70 22.3845V31.3215C70 32.7721 68.8135 33.9514 67.354 33.9514H67.3225V33.8888C65.8455 33.8888 64.6485 32.7026 64.645 31.2345V22.3845C64.645 11.7637 58.8 5.95414 48.146 5.95414H21.896C11.235 5.95414 5.355 11.7985 5.355 22.3845V48.4754C5.355 59.03 11.235 64.8744 21.8855 64.8744H48.1355C58.786 64.8744 64.6345 59.03 64.6345 48.4754C64.6345 47.0073 65.8315 45.8141 67.312 45.8141C68.7925 45.8141 69.9895 47.0073 69.9895 48.4754C70 61.8861 61.628 70.2074 48.146 70.2074H21.8855C8.372 70.2074 0 61.8861 0 48.4858V22.3949C0 8.95286 8.372 0.631592 21.8855 0.631592H48.1355ZM45.6036 25.3188C46.6291 24.2995 48.2916 24.2995 49.3171 25.3188C50.3426 26.3381 50.3426 27.9905 49.3171 29.0098L32.7026 45.5236C32.2091 46.0107 31.5406 46.2855 30.8476 46.2855C30.1476 46.2855 29.4826 46.0107 28.9891 45.5236L20.6836 37.265C19.6581 36.2457 19.6581 34.5933 20.6836 33.574C21.7091 32.5547 23.3716 32.5547 24.3971 33.574L30.8476 39.9889L45.6036 25.3188Z" fill="#8FAEE6"/>
</svg>
