<svg width="21" height="20" viewBox="0 0 21 20" fill="none" xmlns="http://www.w3.org/2000/svg">
<path d="M18.5554 4.62488C15.5554 -0.000152887 9.43034 -1.37516 4.6803 1.49986C0.0552667 4.37488 -1.44474 10.6249 1.55528 15.25L1.80528 15.625L0.805273 19.375L4.5553 18.375L4.9303 18.625C6.55532 19.5 8.30533 20 10.0553 20C11.9304 20 13.8054 19.5 15.4304 18.5C20.0554 15.5 21.4304 9.37492 18.5554 4.62488ZM15.9304 14.25C15.4304 15 14.8054 15.5 13.9304 15.625C13.4304 15.625 12.8054 15.875 10.3053 14.875C8.18033 13.875 6.43032 12.2499 5.18031 10.3749C4.4303 9.49992 4.0553 8.37491 3.9303 7.2499C3.9303 6.2499 4.3053 5.37489 4.9303 4.74988C5.18031 4.49988 5.43031 4.37488 5.68031 4.37488H6.30531C6.55532 4.37488 6.80532 4.37488 6.93032 4.87488C7.18032 5.49989 7.80533 6.9999 7.80533 7.1249C7.93033 7.2499 7.93033 7.49991 7.80533 7.62491C7.93033 7.87491 7.80533 8.12491 7.68033 8.24991C7.55532 8.37491 7.43032 8.62491 7.30532 8.74991C7.05532 8.87492 6.93032 9.12492 7.05532 9.37492C7.55532 10.1249 8.18033 10.8749 8.80533 11.4999C9.55534 12.1249 10.3053 12.6249 11.1804 12.9999C11.4304 13.1249 11.6804 13.1249 11.8054 12.8749C11.9304 12.6249 12.5554 11.9999 12.8054 11.7499C13.0554 11.4999 13.1804 11.4999 13.4304 11.6249L15.4304 12.6249C15.6804 12.7499 15.9304 12.8749 16.0554 12.9999C16.1804 13.3749 16.1804 13.875 15.9304 14.25Z" fill="#E3EEFF"/>
</svg>
