<svg width="52" height="44" viewBox="0 0 52 44" fill="none" xmlns="http://www.w3.org/2000/svg">
<g clip-path="url(#clip0)">
<path d="M18.9697 4.37494C33.2733 1.04805 42.1813 4.17976 42.1813 4.17976L51.9931 0.90576C51.9931 0.874279 51.9931 0.84154 51.9931 0.810059C51.3725 0.606064 38.9484 -2.31913 18.9697 4.37494Z" fill="#E3EEFF"/>
<path d="M18.9703 4.37472C13.2348 6.29631 6.87861 9.01121 0 12.8116C10.1832 9.94052 18.8205 8.38789 29.4003 8.44707L42.1819 4.17954C42.1819 4.17954 33.2739 1.04784 18.9703 4.37472Z" fill="#E3EEFF"/>
<path d="M12.832 39.8928C41.6608 26.3662 51.5557 7.78249 51.9938 0.90332L42.182 4.17732C42.182 4.17732 43.4874 19.7263 12.832 39.8928Z" fill="#E3EEFF"/>
<path d="M3.02734 43.999C6.51617 42.7012 9.78426 41.3324 12.8316 39.8927C43.487 19.7261 42.1816 4.17969 42.1816 4.17969L29.4 8.45351C29.0676 17.8234 23.0123 27.9716 3.02734 44.0053" fill="#E3EEFF"/>
</g>
<defs>
<clipPath id="clip0">
<rect width="52" height="44" fill="white"/>
</clipPath>
</defs>
</svg>
