<svg width="52" height="44" viewBox="0 0 52 44" fill="none" xmlns="http://www.w3.org/2000/svg">
<g clip-path="url(#clip0)">
<path d="M18.9697 4.37494C33.2733 1.04805 42.1813 4.17976 42.1813 4.17976L51.9931 0.90576C51.9931 0.874279 51.9931 0.84154 51.9931 0.810059C51.3725 0.606064 38.9484 -2.31913 18.9697 4.37494Z" fill="#8FAEE6"/>
<path d="M18.9703 4.37497C13.2348 6.29655 6.87861 9.01145 0 12.8118C10.1832 9.94076 18.8205 8.38813 29.4003 8.44732L42.1819 4.17979C42.1819 4.17979 33.2739 1.04808 18.9703 4.37497Z" fill="#8FAEE6"/>
<path d="M12.832 39.8928C41.6608 26.3661 51.5557 7.78243 51.9938 0.903259L42.182 4.17726C42.182 4.17726 43.4874 19.7262 12.832 39.8928Z" fill="#3E4A70"/>
<path d="M3.02734 43.9991C6.51617 42.7012 9.78426 41.3325 12.8316 39.8927C43.487 19.7262 42.1816 4.17975 42.1816 4.17975L29.4 8.45357C29.0676 17.8235 23.0123 27.9716 3.02734 44.0054" fill="#3E4A70"/>
</g>
<defs>
<clipPath id="clip0">
<rect width="52" height="44" fill="white"/>
</clipPath>
</defs>
</svg>
