<svg width="35" height="35" viewBox="0 0 35 35" fill="none" xmlns="http://www.w3.org/2000/svg">
<path d="M0 17.5C0 7.8505 7.8505 0 17.5 0C27.1495 0 35 7.8505 35 17.5C35 27.1495 27.1495 35 17.5 35C12.026 35 6.97025 32.5098 3.62775 28.1715C3.199 27.615 3.304 26.8135 3.85875 26.3865C4.41525 25.956 5.21325 26.0627 5.6455 26.6175C8.49975 30.3293 12.8222 32.4555 17.5 32.4555C25.746 32.4555 32.4555 25.7477 32.4555 17.5C32.4555 9.254 25.746 2.54625 17.5 2.54625C9.254 2.54625 2.5445 9.254 2.5445 17.5C2.5445 18.2647 2.60225 19.0295 2.716 19.7732C2.821 20.4662 2.345 21.1155 1.65025 21.2222C0.952 21.3377 0.30625 20.853 0.1995 20.1582C0.0665 19.2867 0 18.3925 0 17.5ZM14.0459 24.5014C13.5349 23.9869 13.5349 23.1574 14.0494 22.6464L19.2171 17.5014L14.0494 12.3564C13.5349 11.8454 13.5349 11.0141 14.0459 10.4996C14.5569 9.9869 15.3881 9.98515 15.9026 10.4961L22.0031 16.5721C22.2516 16.8172 22.3899 17.1514 22.3899 17.5014C22.3899 17.8496 22.2516 18.1839 22.0031 18.4307L15.9026 24.5049C15.3881 25.0176 14.5569 25.0159 14.0459 24.5014Z" fill="#8FAEE6"/>
</svg>
