<svg width="20" height="20" viewBox="0 0 20 20" fill="none" xmlns="http://www.w3.org/2000/svg">
<path fill-rule="evenodd" clip-rule="evenodd" d="M20 10.101C20 15.4994 15.5225 19.8762 10 19.8762C4.4775 19.8762 0 15.4994 0 10.101C0 4.70261 4.4775 0.325745 10 0.325745C15.5225 0.325745 20 4.70261 20 10.101ZM10.3583 7.54232C9.38583 7.9374 7.44167 8.75607 4.52667 9.99753C4.05333 10.1816 3.805 10.3617 3.7825 10.5376C3.74417 10.8358 4.12583 10.9531 4.64417 11.1119C4.715 11.1339 4.78833 11.1559 4.86333 11.1803C5.37417 11.3424 6.06083 11.5322 6.4175 11.5396C6.74167 11.5461 7.10333 11.4158 7.5025 11.1486C10.2258 9.35074 11.6317 8.44245 11.72 8.4229C11.7825 8.40905 11.8692 8.39113 11.9275 8.44245C11.9858 8.49296 11.98 8.58908 11.9742 8.61515C11.9358 8.77237 10.4408 10.1319 9.66583 10.8358C9.42417 11.0549 9.25333 11.2105 9.21833 11.2463C9.14 11.3253 9.06 11.4011 8.98333 11.4736C8.50833 11.92 8.15333 12.2556 9.00333 12.803C9.41167 13.0661 9.73833 13.2836 10.0642 13.5003C10.42 13.7374 10.775 13.9736 11.235 14.2685C11.3517 14.3434 11.4633 14.4208 11.5725 14.4966C11.9867 14.7858 12.3592 15.0448 12.8192 15.0041C13.0858 14.9796 13.3625 14.7344 13.5025 14.0021C13.8333 12.2703 14.485 8.51984 14.6358 6.97372C14.645 6.84535 14.6394 6.71638 14.6192 6.58923C14.607 6.48653 14.5559 6.39204 14.4758 6.32448C14.3567 6.22918 14.1717 6.20881 14.0883 6.21044C13.7125 6.21696 13.1358 6.41328 10.3583 7.54232Z" fill="#3E4A70"/>
</svg>
