<svg width="21" height="20" viewBox="0 0 21 20" fill="none" xmlns="http://www.w3.org/2000/svg">
<path d="M18.5554 4.84668C15.5554 0.325595 9.43032 -1.01851 4.6803 1.79189C0.0552667 4.6023 -1.44474 10.7119 1.55528 15.233L1.80528 15.5995L0.805272 19.2653L4.55529 18.2877L4.9303 18.5321C6.55531 19.3875 8.30532 19.8762 10.0553 19.8762C11.9303 19.8762 13.8054 19.3875 15.4304 18.4099C20.0554 15.4773 21.4304 9.48995 18.5554 4.84668ZM15.9304 14.2554C15.4304 14.9886 14.8054 15.4773 13.9304 15.5995C13.4304 15.5995 12.8053 15.8439 10.3053 14.8664C8.18032 13.8888 6.43031 12.3004 5.1803 10.4675C4.43029 9.61215 4.05529 8.51242 3.93029 7.4127C3.93029 6.43517 4.30529 5.57983 4.9303 4.96887C5.1803 4.72449 5.4303 4.6023 5.6803 4.6023H6.30531C6.55531 4.6023 6.80531 4.6023 6.93031 5.09106C7.18031 5.70202 7.80531 7.16832 7.80531 7.29051C7.93032 7.4127 7.93032 7.65708 7.80531 7.77927C7.93032 8.02366 7.80532 8.26804 7.68031 8.39023C7.55531 8.51242 7.43031 8.7568 7.30531 8.879C7.05531 9.00119 6.93031 9.24557 7.05531 9.48995C7.55531 10.2231 8.18032 10.9563 8.80532 11.5672C9.55533 12.1782 10.3053 12.6669 11.1803 13.0335C11.4303 13.1557 11.6803 13.1557 11.8053 12.9113C11.9303 12.6669 12.5553 12.056 12.8053 11.8116C13.0553 11.5672 13.1803 11.5672 13.4303 11.6894L15.4304 12.6669C15.6804 12.7891 15.9304 12.9113 16.0554 13.0335C16.1804 13.4001 16.1804 13.8888 15.9304 14.2554Z" fill="#3E4A70"/>
</svg>
